<svg wviewBox="0 0 17 16" xmlns="http://www.w3.org/2000/svg"><g fill="#CBC6D7" fill-rule="evenodd"><path d="M1.043 3.478h4.922A2.435 2.435 0 008.162 4.87c.969 0 1.805-.57 2.196-1.392h4.922a1.044 1.044 0 000-2.087h-4.922A2.435 2.435 0 008.162 0c-.97 0-1.805.57-2.197 1.391H1.043a1.044 1.044 0 000 2.087M13.889 11.13c-.97 0-1.805.57-2.197 1.392H1.044a1.044 1.044 0 000 2.087h10.648A2.435 2.435 0 0013.89 16a2.437 2.437 0 002.435-2.435 2.437 2.437 0 00-2.435-2.435M15.28 6.957H4.631a2.436 2.436 0 00-2.196-1.392A2.437 2.437 0 000 8a2.437 2.437 0 002.435 2.435c.969 0 1.805-.57 2.196-1.392h10.65a1.044 1.044 0 000-2.086"/></g></svg>