<svg viewBox="0 0 174 128" xmlns="http://www.w3.org/2000/svg" xmlns:xlink="http://www.w3.org/1999/xlink"><defs><path id="a" d="M0 .425h173.066V73.59H0z"/></defs><g fill="none" fill-rule="evenodd"><path d="M20.382 58.96a7.316 7.316 0 100 14.633h8.495a7.317 7.317 0 000-14.633h-8.495z" fill="#F6F6F8"/><g transform="translate(0 .004)"><mask id="b" fill="#fff"><use xlink:href="#a"/></mask><path d="M138.723.5a7.37 7.37 0 00-.99-.075H45.148a7.316 7.316 0 000 14.633h3.527v.009c3.96.092 7.144 3.325 7.144 7.308 0 3.982-3.184 7.214-7.144 7.307v.009H7.316a7.316 7.316 0 000 14.633H59.51v.008c3.96.092 7.144 3.325 7.144 7.308 0 3.982-3.184 7.215-7.144 7.307v.009h-1.62a7.316 7.316 0 100 14.633h79.843c.336 0 .665-.031.99-.075 19.16-1.158 34.343-17.056 34.343-36.507 0-19.45-15.183-35.35-34.343-36.507z" fill="#F6F6F8" mask="url(#b)"/></g><path d="M78.707 79.995a2.577 2.577 0 010-5.155h25.531a2.578 2.578 0 010 5.155H78.707zm0 13.843a2.577 2.577 0 110-5.155h25.531a2.578 2.578 0 010 5.155H78.707zm0 13.843a2.577 2.577 0 110-5.155h9.531a2.578 2.578 0 010 5.155h-9.531zm-7.33-53.488c-5.45 0-9.87 4.418-9.87 9.87v51.065c0 5.45 4.42 9.87 9.87 9.87h40.19c5.452 0 9.87-4.42 9.87-9.87V64.062c0-5.45-4.418-9.87-9.87-9.87h-40.19z" fill="#7B4FFF"/><path d="M71.378 56.77c-4.022 0-7.293 3.27-7.293 7.292v51.066c0 4.021 3.271 7.292 7.293 7.292h40.19c4.021 0 7.292-3.271 7.292-7.292V64.062c0-4.021-3.27-7.292-7.293-7.292h-40.19zm40.19 70.805h-40.19c-6.864 0-12.448-5.584-12.448-12.447V64.062c0-6.863 5.584-12.447 12.448-12.447h40.19c6.863 0 12.447 5.584 12.447 12.447v51.066c0 6.863-5.584 12.447-12.448 12.447z" fill="#FFF"/><path d="M94.355 54.126H88.59a2.578 2.578 0 010-5.154h5.765a2.578 2.578 0 010 5.154" fill="#D7CCF9"/><path d="M157.829 37.011c0 10.61-8.6 19.21-19.21 19.21-10.61 0-19.21-8.6-19.21-19.21 0-10.61 8.6-19.21 19.21-19.21 10.61 0 19.21 8.6 19.21 19.21" fill="#FFF"/><path d="M138.619 20.378c-9.172 0-16.634 7.462-16.634 16.633 0 9.172 7.462 16.634 16.634 16.634s16.633-7.462 16.633-16.634c0-9.171-7.461-16.633-16.633-16.633m0 38.421c-12.014 0-21.788-9.774-21.788-21.788 0-12.013 9.774-21.787 21.788-21.787 12.013 0 21.787 9.774 21.787 21.787 0 12.014-9.774 21.788-21.787 21.788" fill="#FFF"/><path d="M84.713 65.212a6.052 6.052 0 01-6.045-6.044v-4.976a2.578 2.578 0 012.577-2.577H101.7a2.577 2.577 0 012.577 2.577v4.976a6.052 6.052 0 01-6.045 6.044H84.713z" fill="#D7CCF9"/><path d="M138.619 25.277c-6.47 0-11.735 5.264-11.735 11.734s5.264 11.735 11.735 11.735c6.47 0 11.734-5.264 11.734-11.735 0-6.47-5.264-11.734-11.734-11.734m0 28.623c-9.313 0-16.89-7.576-16.89-16.889 0-9.312 7.577-16.889 16.89-16.889 9.312 0 16.888 7.577 16.888 16.89 0 9.312-7.576 16.888-16.888 16.888" fill="#7B4FFF"/><path d="M109.956 25.277h-6.027a2.577 2.577 0 010-5.155h6.027a2.578 2.578 0 010 5.155" fill="#6B6974"/><path d="M98.575 39.588H75.7a2.578 2.578 0 010-5.154h22.875a2.578 2.578 0 010 5.154" fill="#FFF"/><path d="M48.831 85.871H38.44a2.577 2.577 0 010-5.154H48.83a2.578 2.578 0 010 5.154" fill="#7B4FFF"/><path d="M43.635 91.067a2.578 2.578 0 01-2.577-2.577V78.098a2.578 2.578 0 015.154 0V88.49a2.578 2.578 0 01-2.577 2.577M143.814 39.588h-10.391a2.577 2.577 0 010-5.154h10.391a2.578 2.578 0 010 5.154" fill="#7B4FFF"/><path d="M138.619 44.784a2.578 2.578 0 01-2.577-2.577V31.816a2.578 2.578 0 015.154 0v10.39a2.578 2.578 0 01-2.577 2.578" fill="#7B4FFF"/></g></svg>