<svg viewBox="0 0 107 91" xmlns="http://www.w3.org/2000/svg"><g fill="#7B4FFF" fill-rule="evenodd"><path d="M33.622 32.77a144.477 144.477 0 00-10.21-4.678 150.719 150.719 0 00-1.406 10.371 95.872 95.872 0 019 2.49 78.697 78.697 0 012.616-8.184zm-1.504 15.1c-4.05-1.556-8.698-2.88-13.975-3.953-1.505-.306-2.549-1.7-2.43-3.25.404-5.32 1.196-11.114 2.389-17.4.357-1.882 2.312-2.978 4.08-2.287 6.267 2.45 11.83 4.995 16.715 7.63a3.09 3.09 0 011.375 3.896c-1.935 4.69-3.288 9.053-4.096 13.1-.371 1.86-2.304 2.938-4.058 2.264zm43.876-6.917a95.872 95.872 0 019-2.49 150.719 150.719 0 00-1.406-10.371 144.477 144.477 0 00-10.21 4.677 78.697 78.697 0 012.616 8.184zM68.103 28.61c4.885-2.635 10.448-5.18 16.715-7.63 1.768-.69 3.723.405 4.08 2.288 1.193 6.285 1.985 12.079 2.39 17.4.118 1.548-.926 2.943-2.431 3.249-5.277 1.072-9.926 2.397-13.975 3.953-1.754.674-3.687-.405-4.058-2.265-.808-4.046-2.161-8.41-4.096-13.1a3.09 3.09 0 011.375-3.895z"/><path d="M68.102 78.102a34.44 34.44 0 01-7.024 5.146c3.517 1.121 7.181 1.41 10.854.568 11.295-2.589 21.144-15.242 28.022-41.666-8.9 1.071-16.443 2.711-22.71 4.862 2.071 13.584-1.527 23.89-9.142 31.09zm4.621-35.979c8.186-3.145 18.445-5.36 30.95-6.556 2.073-.198 3.725 1.724 3.242 3.773-7.387 31.36-19.09 47.137-33.64 50.472-5.242 1.201-10.39.65-15.218-1.109-2.886-1.051-5.058-2.283-6.339-3.22-2.108-1.544-1.448-4.878 1.084-5.483.657-.156 1.91-.569 3.519-1.3 2.71-1.233 5.327-2.912 7.63-5.089 6.56-6.202 9.428-15.212 6.873-28.006a3.08 3.08 0 011.9-3.482z"/><path d="M54.198 85.984c-.46.11-.937.11-1.396 0-3.053-.729-7.43-2.585-11.817-6.072C23.583 66.075 23.583 40.563 51.018 1.3a3.02 3.02 0 014.964 0c21.534 30.819 26.264 53.382 18.152 68.86-2.913 5.56-7.26 9.707-12.406 12.653-3.08 1.763-5.775 2.752-7.53 3.17zm.229-6.506a28.427 28.427 0 004.307-2.015c4.202-2.406 7.708-5.75 10.03-10.182 6.558-12.514 2.938-31.624-15.265-58.808-23.249 34.665-22.783 55.454-8.757 66.605a28.535 28.535 0 006.61 3.916c.868.369 1.598.633 2.142.806.26-.083.572-.19.933-.322z"/><path d="M34.277 42.123a3.08 3.08 0 011.9 3.482c-2.557 12.797.313 21.807 6.875 28.01 2.303 2.176 4.922 3.854 7.631 5.086 1.61.732 2.914 1.16 3.515 1.3 2.532.604 3.192 3.938 1.084 5.481-1.281.938-3.453 2.17-6.34 3.222-4.827 1.758-9.975 2.309-15.218 1.108C19.174 86.477 7.472 70.7.085 39.34c-.483-2.05 1.17-3.971 3.242-3.773 12.505 1.196 22.764 3.41 30.95 6.556zm-27.23.027c6.877 26.424 16.726 39.077 28.02 41.666 3.674.842 7.338.553 10.855-.568a34.445 34.445 0 01-7.02-5.142c-7.617-7.2-11.218-17.507-9.146-31.094-6.267-2.151-13.81-3.79-22.71-4.862z"/><ellipse cx="53.5" cy="61.476" rx="6.078" ry="6.148"/><ellipse cx="53.5" cy="44.57" rx="4.559" ry="4.611"/><ellipse cx="53.5" cy="30.738" rx="3.039" ry="3.074"/></g></svg>